<svg xmlns="http://www.w3.org/2000/svg" xmlns:xlink="http://www.w3.org/1999/xlink" version="1.1" width="256" height="256" viewBox="0 0 256 256" xml:space="preserve">

<defs>
</defs>
<g style="stroke: none; stroke-width: 0; stroke-dasharray: none; stroke-linecap: butt; stroke-linejoin: miter; stroke-miterlimit: 10; fill: none; fill-rule: nonzero; opacity: 1;" transform="translate(1.4065934065934016 1.4065934065934016) scale(2.81 2.81)" >
	<path d="M 22.811 74.777 c -0.552 0 -1 -0.447 -1 -1 v -10.02 c 0 -0.553 0.448 -1 1 -1 s 1 0.447 1 1 v 10.02 C 23.811 74.33 23.363 74.777 22.811 74.777 z" style="stroke: none; stroke-width: 1; stroke-dasharray: none; stroke-linecap: butt; stroke-linejoin: miter; stroke-miterlimit: 10; fill: rgb(0,0,0); fill-rule: nonzero; opacity: 1;" transform=" matrix(1 0 0 1 0 0) " stroke-linecap="round" />
	<path d="M 26.719 59.022 c -0.819 -2.139 -2.185 -4.035 -3.909 -5.774 c -1.724 1.739 -3.09 3.636 -3.909 5.774 c -0.836 2.184 0.705 4.598 3.039 4.733 c 0.275 0.016 0.565 0.017 0.869 0.003 c 0.304 0.014 0.594 0.013 0.869 -0.003 C 26.015 63.621 27.555 61.207 26.719 59.022 z" style="stroke: none; stroke-width: 1; stroke-dasharray: none; stroke-linecap: butt; stroke-linejoin: miter; stroke-miterlimit: 10; fill: rgb(197,233,125); fill-rule: nonzero; opacity: 1;" transform=" matrix(1 0 0 1 0 0) " stroke-linecap="round" />
	<path d="M 71.098 59.022 c -0.819 -2.139 -2.185 -4.035 -3.909 -5.774 c -1.724 1.739 -3.09 3.636 -3.909 5.774 c -0.836 2.184 0.705 4.598 3.039 4.733 c 0.275 0.016 0.565 0.017 0.869 0.003 c 0.304 0.014 0.594 0.013 0.869 -0.003 C 70.394 63.621 71.934 61.207 71.098 59.022 z" style="stroke: none; stroke-width: 1; stroke-dasharray: none; stroke-linecap: butt; stroke-linejoin: miter; stroke-miterlimit: 10; fill: rgb(197,233,125); fill-rule: nonzero; opacity: 1;" transform=" matrix(1 0 0 1 0 0) " stroke-linecap="round" />
	<path d="M 23.229 64.769 c -0.152 0 -0.308 -0.004 -0.467 -0.012 c -0.244 0.018 -0.572 0.015 -0.881 -0.004 c -1.426 -0.082 -2.696 -0.826 -3.481 -2.041 c -0.791 -1.224 -0.949 -2.698 -0.433 -4.047 c 0.818 -2.139 2.17 -4.141 4.132 -6.121 c 0.376 -0.379 1.045 -0.379 1.421 0 c 1.961 1.979 3.313 3.981 4.132 6.121 l 0 0 c 0.516 1.349 0.358 2.823 -0.433 4.047 c -0.785 1.215 -2.055 1.959 -3.483 2.041 C 23.573 64.763 23.404 64.769 23.229 64.769 z M 22.762 62.759 c 0.362 0.012 0.615 0.013 0.857 -0.002 c 0.787 -0.046 1.486 -0.458 1.922 -1.131 c 0.44 -0.682 0.529 -1.5 0.244 -2.246 c -0.617 -1.611 -1.594 -3.149 -2.975 -4.678 c -1.381 1.529 -2.358 3.067 -2.975 4.678 c -0.286 0.746 -0.197 1.564 0.244 2.246 c 0.436 0.673 1.135 1.085 1.919 1.131 C 22.242 62.771 22.497 62.771 22.762 62.759 z" style="stroke: none; stroke-width: 1; stroke-dasharray: none; stroke-linecap: butt; stroke-linejoin: miter; stroke-miterlimit: 10; fill: rgb(0,0,0); fill-rule: nonzero; opacity: 1;" transform=" matrix(1 0 0 1 0 0) " stroke-linecap="round" />
	<path d="M 45 74.777 c -0.552 0 -1 -0.447 -1 -1 v -10.02 c 0 -0.553 0.448 -1 1 -1 s 1 0.447 1 1 v 10.02 C 46 74.33 45.552 74.777 45 74.777 z" style="stroke: none; stroke-width: 1; stroke-dasharray: none; stroke-linecap: butt; stroke-linejoin: miter; stroke-miterlimit: 10; fill: rgb(0,0,0); fill-rule: nonzero; opacity: 1;" transform=" matrix(1 0 0 1 0 0) " stroke-linecap="round" />
	<path d="M 48.909 59.022 c -0.819 -2.139 -2.185 -4.035 -3.909 -5.774 c -1.724 1.739 -3.09 3.636 -3.909 5.774 c -0.836 2.184 0.705 4.598 3.039 4.733 c 0.275 0.016 0.565 0.017 0.869 0.003 c 0.304 0.014 0.594 0.013 0.869 -0.003 C 48.204 63.621 49.745 61.207 48.909 59.022 z" style="stroke: none; stroke-width: 1; stroke-dasharray: none; stroke-linecap: butt; stroke-linejoin: miter; stroke-miterlimit: 10; fill: rgb(197,233,125); fill-rule: nonzero; opacity: 1;" transform=" matrix(1 0 0 1 0 0) " stroke-linecap="round" />
	<path d="M 45.419 64.769 c -0.152 0 -0.308 -0.004 -0.467 -0.012 c -0.245 0.018 -0.571 0.015 -0.881 -0.004 c -1.426 -0.082 -2.696 -0.826 -3.481 -2.041 c -0.791 -1.224 -0.949 -2.698 -0.433 -4.047 c 0.818 -2.139 2.17 -4.141 4.132 -6.121 c 0.376 -0.379 1.045 -0.379 1.421 0 c 1.961 1.979 3.313 3.981 4.132 6.121 l 0 0 c 0.517 1.349 0.358 2.823 -0.432 4.047 c -0.786 1.215 -2.056 1.959 -3.484 2.041 C 45.763 64.763 45.593 64.769 45.419 64.769 z M 44.952 62.759 c 0.362 0.012 0.615 0.013 0.857 -0.002 c 0.788 -0.046 1.487 -0.458 1.922 -1.131 c 0.44 -0.682 0.529 -1.5 0.244 -2.246 l 0 0 c -0.617 -1.611 -1.595 -3.148 -2.976 -4.678 c -1.381 1.529 -2.358 3.067 -2.975 4.678 c -0.286 0.746 -0.197 1.564 0.244 2.246 c 0.436 0.673 1.135 1.085 1.919 1.131 C 44.432 62.771 44.686 62.771 44.952 62.759 z" style="stroke: none; stroke-width: 1; stroke-dasharray: none; stroke-linecap: butt; stroke-linejoin: miter; stroke-miterlimit: 10; fill: rgb(0,0,0); fill-rule: nonzero; opacity: 1;" transform=" matrix(1 0 0 1 0 0) " stroke-linecap="round" />
	<path d="M 67.189 74.777 c -0.553 0 -1 -0.447 -1 -1 v -10.02 c 0 -0.553 0.447 -1 1 -1 s 1 0.447 1 1 v 10.02 C 68.189 74.33 67.742 74.777 67.189 74.777 z" style="stroke: none; stroke-width: 1; stroke-dasharray: none; stroke-linecap: butt; stroke-linejoin: miter; stroke-miterlimit: 10; fill: rgb(0,0,0); fill-rule: nonzero; opacity: 1;" transform=" matrix(1 0 0 1 0 0) " stroke-linecap="round" />
	<path d="M 67.608 64.769 c -0.152 0 -0.308 -0.004 -0.467 -0.012 c -0.246 0.017 -0.572 0.014 -0.882 -0.004 c -1.426 -0.082 -2.696 -0.826 -3.481 -2.042 c -0.79 -1.224 -0.947 -2.698 -0.431 -4.046 c 0.818 -2.14 2.17 -4.142 4.132 -6.121 c 0.375 -0.379 1.045 -0.379 1.42 0 c 1.962 1.979 3.313 3.981 4.133 6.121 l 0 0 c 0.517 1.349 0.358 2.823 -0.432 4.047 c -0.786 1.215 -2.056 1.959 -3.484 2.041 C 67.952 64.763 67.782 64.769 67.608 64.769 z M 67.142 62.759 c 0.359 0.012 0.615 0.012 0.856 -0.002 c 0.788 -0.046 1.487 -0.458 1.923 -1.131 c 0.44 -0.682 0.529 -1.5 0.244 -2.246 l 0 0 c -0.617 -1.611 -1.595 -3.148 -2.976 -4.678 c -1.381 1.529 -2.357 3.066 -2.975 4.678 c -0.285 0.746 -0.196 1.564 0.243 2.246 c 0.436 0.673 1.135 1.085 1.92 1.131 C 66.621 62.771 66.874 62.771 67.142 62.759 z" style="stroke: none; stroke-width: 1; stroke-dasharray: none; stroke-linecap: butt; stroke-linejoin: miter; stroke-miterlimit: 10; fill: rgb(0,0,0); fill-rule: nonzero; opacity: 1;" transform=" matrix(1 0 0 1 0 0) " stroke-linecap="round" />
	<path d="M 87.832 79.022 h -5.101 c -0.689 -2.367 -2.871 -4.099 -5.46 -4.099 c -1.001 0 -1.94 0.26 -2.757 0.714 c -1.38 -2.639 -4.14 -4.443 -7.324 -4.443 c -2.65 0 -5.002 1.251 -6.513 3.191 c -1.053 -1.106 -2.536 -1.799 -4.184 -1.799 c -1.781 0 -3.373 0.807 -4.433 2.073 c -1.498 -2.097 -3.948 -3.465 -6.722 -3.465 c -2.856 0 -5.367 1.454 -6.851 3.657 c -1.057 -1.375 -2.713 -2.265 -4.581 -2.265 c -1.763 0 -3.34 0.792 -4.4 2.037 c -1.501 -2.076 -3.937 -3.429 -6.694 -3.429 c -3.185 0 -5.944 1.804 -7.324 4.443 c -0.817 -0.454 -1.756 -0.714 -2.757 -0.714 c -2.59 0 -4.771 1.732 -5.46 4.099 H 2.168 C 1.523 79.022 1 79.545 1 80.19 v 3.54 c 0 0.645 0.523 1.168 1.168 1.168 h 22.527 h 18.758 h 3.094 H 65.98 h 21.852 c 0.645 0 1.168 -0.523 1.168 -1.168 v -3.54 C 89 79.545 88.477 79.022 87.832 79.022 z" style="stroke: none; stroke-width: 1; stroke-dasharray: none; stroke-linecap: butt; stroke-linejoin: miter; stroke-miterlimit: 10; fill: rgb(190,143,125); fill-rule: nonzero; opacity: 1;" transform=" matrix(1 0 0 1 0 0) " stroke-linecap="round" />
	<path d="M 87.832 85.897 H 2.168 C 0.973 85.897 0 84.925 0 83.729 v -3.54 c 0 -1.195 0.973 -2.168 2.168 -2.168 h 4.397 c 1.032 -2.446 3.467 -4.099 6.165 -4.099 c 0.805 0 1.604 0.146 2.354 0.429 c 1.707 -2.587 4.588 -4.158 7.727 -4.158 c 2.574 0 5.031 1.087 6.772 2.952 c 1.208 -1.002 2.732 -1.561 4.323 -1.561 c 1.69 0 3.28 0.617 4.513 1.725 c 1.747 -1.97 4.255 -3.116 6.92 -3.116 c 2.59 0 5.056 1.096 6.798 2.979 c 1.212 -1.02 2.747 -1.587 4.356 -1.587 c 1.503 0 2.924 0.484 4.097 1.381 c 1.735 -1.773 4.089 -2.772 6.601 -2.772 c 3.139 0 6.021 1.571 7.727 4.158 c 0.75 -0.282 1.55 -0.429 2.354 -0.429 c 2.697 0 5.133 1.651 6.164 4.099 h 4.397 c 1.195 0 2.168 0.973 2.168 2.168 v 3.54 C 90 84.925 89.027 85.897 87.832 85.897 z M 2.168 80.021 C 2.075 80.021 2 80.097 2 80.189 v 3.54 c 0 0.093 0.075 0.168 0.168 0.168 h 85.664 c 0.093 0 0.168 -0.075 0.168 -0.168 v -3.54 c 0 -0.093 -0.075 -0.168 -0.168 -0.168 H 82.73 c -0.444 0 -0.836 -0.294 -0.96 -0.721 c -0.579 -1.989 -2.429 -3.378 -4.5 -3.378 c -0.793 0 -1.579 0.203 -2.271 0.588 c -0.235 0.131 -0.516 0.162 -0.772 0.084 c -0.258 -0.077 -0.475 -0.256 -0.599 -0.495 c -1.26 -2.409 -3.727 -3.906 -6.438 -3.906 c -2.249 0 -4.335 1.022 -5.725 2.806 c -0.179 0.229 -0.449 0.369 -0.739 0.384 c -0.292 0.014 -0.573 -0.099 -0.774 -0.31 c -0.914 -0.96 -2.143 -1.488 -3.459 -1.488 c -1.417 0 -2.753 0.625 -3.666 1.715 c -0.198 0.237 -0.496 0.386 -0.805 0.357 c -0.31 -0.012 -0.596 -0.166 -0.775 -0.418 c -1.363 -1.907 -3.571 -3.046 -5.908 -3.046 c -2.415 0 -4.666 1.202 -6.021 3.215 c -0.18 0.267 -0.477 0.431 -0.798 0.44 c -0.32 0.04 -0.628 -0.134 -0.824 -0.39 c -0.917 -1.19 -2.297 -1.874 -3.789 -1.874 c -1.399 0 -2.726 0.614 -3.639 1.686 c -0.199 0.234 -0.481 0.381 -0.801 0.351 c -0.307 -0.012 -0.59 -0.164 -0.771 -0.413 c -1.365 -1.888 -3.564 -3.015 -5.884 -3.015 c -2.711 0 -5.178 1.497 -6.438 3.906 c -0.125 0.239 -0.341 0.418 -0.599 0.495 c -0.259 0.077 -0.537 0.046 -0.773 -0.084 c -0.692 -0.385 -1.478 -0.588 -2.271 -0.588 c -2.071 0 -3.921 1.389 -4.5 3.378 c -0.124 0.427 -0.515 0.721 -0.96 0.721 H 2.168 z" style="stroke: none; stroke-width: 1; stroke-dasharray: none; stroke-linecap: butt; stroke-linejoin: miter; stroke-miterlimit: 10; fill: rgb(0,0,0); fill-rule: nonzero; opacity: 1;" transform=" matrix(1 0 0 1 0 0) " stroke-linecap="round" />
	<path d="M 9.615 27.929 l -1.541 -0.901 C 4.562 24.974 2.6 21.036 3.078 16.994 c 0.211 -1.791 0.896 -3.5 1.978 -4.942 l 1.197 -1.595 c 3.121 -4.158 8.86 -5.315 13.348 -2.69 l 2.285 1.336 c 0.951 0.556 1.272 1.778 0.715 2.73 c -0.556 0.951 -1.778 1.272 -2.73 0.715 l -2.285 -1.336 c -2.738 -1.601 -6.239 -0.896 -8.142 1.641 l -1.197 1.595 c -0.66 0.879 -1.078 1.922 -1.206 3.014 c -0.291 2.466 0.905 4.868 3.048 6.121 l 1.541 0.901 c 0.951 0.556 1.272 1.779 0.715 2.73 S 10.567 28.486 9.615 27.929 z" style="stroke: none; stroke-width: 1; stroke-dasharray: none; stroke-linecap: butt; stroke-linejoin: miter; stroke-miterlimit: 10; fill: rgb(222,212,207); fill-rule: nonzero; opacity: 1;" transform=" matrix(1 0 0 1 0 0) " stroke-linecap="round" />
	<path d="M 10.617 29.204 c -0.525 0 -1.042 -0.139 -1.507 -0.411 L 7.57 27.892 c -3.856 -2.254 -6.009 -6.578 -5.485 -11.015 c 0.232 -1.966 0.983 -3.841 2.171 -5.425 l 1.197 -1.595 c 3.426 -4.563 9.726 -5.834 14.653 -2.953 l 2.285 1.336 c 1.425 0.833 1.907 2.672 1.074 4.098 c -0.833 1.426 -2.672 1.909 -4.098 1.074 l -2.286 -1.336 c -2.301 -1.346 -5.239 -0.752 -6.837 1.377 l -1.198 1.596 c -0.555 0.739 -0.905 1.614 -1.013 2.53 c -0.245 2.071 0.76 4.089 2.559 5.142 l 1.541 0.901 c 1.426 0.833 1.907 2.672 1.074 4.098 c -0.404 0.69 -1.053 1.183 -1.827 1.386 C 11.129 29.17 10.872 29.204 10.617 29.204 z M 14.441 7.367 c -2.82 0 -5.587 1.292 -7.388 3.691 l -1.197 1.595 c -0.977 1.301 -1.594 2.843 -1.785 4.458 C 3.64 20.758 5.41 24.312 8.58 26.165 l 1.541 0.901 l 0 0 c 0.229 0.135 0.498 0.172 0.755 0.104 c 0.257 -0.067 0.473 -0.231 0.607 -0.46 s 0.171 -0.497 0.104 -0.754 s -0.231 -0.473 -0.46 -0.607 l -1.541 -0.901 c -2.486 -1.454 -3.874 -4.242 -3.536 -7.102 c 0.149 -1.267 0.633 -2.476 1.399 -3.497 l 1.198 -1.595 c 2.208 -2.943 6.271 -3.76 9.447 -1.903 l 2.285 1.336 c 0.474 0.277 1.084 0.116 1.362 -0.357 c 0.277 -0.474 0.117 -1.085 -0.357 -1.362 L 19.097 8.63 C 17.638 7.777 16.031 7.367 14.441 7.367 z" style="stroke: none; stroke-width: 1; stroke-dasharray: none; stroke-linecap: butt; stroke-linejoin: miter; stroke-miterlimit: 10; fill: rgb(0,0,0); fill-rule: nonzero; opacity: 1;" transform=" matrix(1 0 0 1 0 0) " stroke-linecap="round" />
	<path d="M 25.41 44.671 L 6.433 33.574 c -1.016 -0.594 -1.322 -1.921 -0.669 -2.901 L 20.637 8.372 l 19.771 11.561 L 28.266 43.832 C 27.733 44.881 26.426 45.265 25.41 44.671 z" style="stroke: none; stroke-width: 1; stroke-dasharray: none; stroke-linecap: butt; stroke-linejoin: miter; stroke-miterlimit: 10; fill: rgb(222,212,207); fill-rule: nonzero; opacity: 1;" transform=" matrix(1 0 0 1 0 0) " stroke-linecap="round" />
	<polygon points="29.82,40.77 44.03,41.4 44.73,37.02 33.33,33.87 " style="stroke: none; stroke-width: 1; stroke-dasharray: none; stroke-linecap: butt; stroke-linejoin: miter; stroke-miterlimit: 10; fill: rgb(222,212,207); fill-rule: nonzero; opacity: 1;" transform="  matrix(1 0 0 1 0 0) "/>
	<path d="M 6.433 33.574 L 25.41 44.671 c 1.016 0.594 2.323 0.21 2.856 -0.839 l 1.441 -2.837 L 7.529 28.026 l -1.766 2.648 C 5.11 31.653 5.417 32.98 6.433 33.574 z" style="stroke: none; stroke-width: 1; stroke-dasharray: none; stroke-linecap: butt; stroke-linejoin: miter; stroke-miterlimit: 10; fill: rgb(222,212,207); fill-rule: nonzero; opacity: 1;" transform=" matrix(1 0 0 1 0 0) " stroke-linecap="round" />
	<polygon points="48.43,44.4 44.03,41.4 44.73,37.02 49.84,35.52 " style="stroke: none; stroke-width: 1; stroke-dasharray: none; stroke-linecap: butt; stroke-linejoin: miter; stroke-miterlimit: 10; fill: rgb(222,212,207); fill-rule: nonzero; opacity: 1;" transform="  matrix(1 0 0 1 0 0) "/>
	<path d="M 26.445 45.95 c -0.537 0 -1.07 -0.141 -1.54 -0.416 L 5.928 34.438 c -0.721 -0.421 -1.242 -1.13 -1.43 -1.944 c -0.188 -0.814 -0.029 -1.68 0.434 -2.375 L 19.805 7.817 c 0.292 -0.44 0.878 -0.577 1.337 -0.309 l 19.771 11.561 c 0.457 0.267 0.626 0.844 0.387 1.316 L 29.158 44.285 c -0.378 0.745 -1.055 1.307 -1.857 1.542 C 27.021 45.909 26.733 45.95 26.445 45.95 z M 20.946 9.711 L 6.596 31.229 c -0.162 0.242 -0.214 0.532 -0.149 0.815 c 0.065 0.283 0.239 0.52 0.49 0.667 l 18.978 11.097 l 0 0 c 0.251 0.147 0.545 0.183 0.822 0.101 c 0.279 -0.082 0.506 -0.27 0.638 -0.53 L 39.089 20.32 L 20.946 9.711 z" style="stroke: none; stroke-width: 1; stroke-dasharray: none; stroke-linecap: butt; stroke-linejoin: miter; stroke-miterlimit: 10; fill: rgb(0,0,0); fill-rule: nonzero; opacity: 1;" transform=" matrix(1 0 0 1 0 0) " stroke-linecap="round" />
	<path d="M 26.445 45.95 c -0.537 0 -1.07 -0.141 -1.54 -0.416 L 5.928 34.438 c -0.721 -0.421 -1.242 -1.13 -1.43 -1.944 c -0.188 -0.814 -0.029 -1.68 0.434 -2.375 l 1.766 -2.647 c 0.293 -0.441 0.878 -0.578 1.337 -0.309 l 22.179 12.968 c 0.457 0.267 0.626 0.844 0.387 1.316 l -1.441 2.837 c -0.378 0.745 -1.055 1.307 -1.857 1.542 C 27.021 45.909 26.733 45.95 26.445 45.95 z M 7.838 29.365 l -1.243 1.864 c -0.162 0.242 -0.214 0.532 -0.149 0.815 c 0.065 0.283 0.239 0.52 0.49 0.667 h 0 l 18.978 11.097 c 0.251 0.147 0.545 0.183 0.822 0.101 c 0.279 -0.082 0.506 -0.27 0.638 -0.53 l 1.015 -1.997 L 7.838 29.365 z" style="stroke: none; stroke-width: 1; stroke-dasharray: none; stroke-linecap: butt; stroke-linejoin: miter; stroke-miterlimit: 10; fill: rgb(0,0,0); fill-rule: nonzero; opacity: 1;" transform=" matrix(1 0 0 1 0 0) " stroke-linecap="round" />
	<path d="M 44.036 42.399 c -0.015 0 -0.03 0 -0.045 -0.001 l -14.213 -0.629 c -0.339 -0.015 -0.648 -0.202 -0.819 -0.495 s -0.182 -0.654 -0.028 -0.957 l 3.506 -6.901 c 0.215 -0.424 0.697 -0.637 1.158 -0.511 l 11.4 3.151 c 0.49 0.136 0.801 0.618 0.721 1.12 l -0.693 4.379 C 44.946 42.043 44.525 42.399 44.036 42.399 z M 31.416 39.839 l 11.771 0.521 l 0.414 -2.614 l -9.751 -2.695 L 31.416 39.839 z" style="stroke: none; stroke-width: 1; stroke-dasharray: none; stroke-linecap: butt; stroke-linejoin: miter; stroke-miterlimit: 10; fill: rgb(0,0,0); fill-rule: nonzero; opacity: 1;" transform=" matrix(1 0 0 1 0 0) " stroke-linecap="round" />
	<path d="M 20.637 8.372 c 4.255 -4.393 8.995 -3.912 13.959 -1.186 l -4.073 6.966 L 20.637 8.372 z" style="stroke: none; stroke-width: 1; stroke-dasharray: none; stroke-linecap: butt; stroke-linejoin: miter; stroke-miterlimit: 10; fill: rgb(222,212,207); fill-rule: nonzero; opacity: 1;" transform=" matrix(1 0 0 1 0 0) " stroke-linecap="round" />
	<path d="M 30.521 15.152 c -0.171 0 -0.345 -0.044 -0.504 -0.137 l -9.885 -5.78 c -0.265 -0.155 -0.444 -0.423 -0.486 -0.728 s 0.059 -0.611 0.272 -0.832 C 24.041 3.42 29 2.971 35.077 6.31 c 0.236 0.13 0.411 0.35 0.482 0.61 c 0.072 0.26 0.036 0.539 -0.101 0.771 l -4.074 6.966 C 31.199 14.975 30.865 15.152 30.521 15.152 z M 22.297 8.185 l 7.867 4.6 l 3.039 -5.197 C 28.795 5.412 25.358 5.597 22.297 8.185 z" style="stroke: none; stroke-width: 1; stroke-dasharray: none; stroke-linecap: butt; stroke-linejoin: miter; stroke-miterlimit: 10; fill: rgb(0,0,0); fill-rule: nonzero; opacity: 1;" transform=" matrix(1 0 0 1 0 0) " stroke-linecap="round" />
	<path d="M 48.434 45.404 c -0.198 0 -0.396 -0.059 -0.564 -0.174 l -4.398 -3.005 c -0.319 -0.218 -0.484 -0.6 -0.424 -0.982 l 0.693 -4.379 c 0.061 -0.382 0.335 -0.694 0.706 -0.803 l 5.111 -1.5 c 0.33 -0.097 0.686 -0.018 0.941 0.208 c 0.258 0.226 0.381 0.569 0.327 0.907 l -1.405 8.884 c -0.053 0.338 -0.276 0.626 -0.591 0.762 C 48.703 45.377 48.567 45.404 48.434 45.404 z M 45.122 40.93 l 2.571 1.756 l 0.912 -5.762 l -2.988 0.877 L 45.122 40.93 z" style="stroke: none; stroke-width: 1; stroke-dasharray: none; stroke-linecap: butt; stroke-linejoin: miter; stroke-miterlimit: 10; fill: rgb(0,0,0); fill-rule: nonzero; opacity: 1;" transform=" matrix(1 0 0 1 0 0) " stroke-linecap="round" />
	<path d="M 19.627 22.871 c 0.405 0.499 0.884 0.915 1.458 1.218 c -0.648 0.036 -1.257 0.214 -1.834 0.5 c -2.421 1.199 -0.773 4.955 1.749 3.987 c 0.601 -0.231 1.145 -0.558 1.61 -1.011 c -0.166 0.627 -0.185 1.261 -0.091 1.897 c 0.392 2.673 4.475 2.267 4.332 -0.431 c -0.034 -0.642 -0.178 -1.26 -0.464 -1.842 c 0.545 0.351 1.142 0.565 1.776 0.673 c 2.663 0.453 3.538 -3.555 0.929 -4.253 c -0.621 -0.166 -1.253 -0.22 -1.894 -0.128 c 0.503 -0.41 0.892 -0.913 1.19 -1.483 c 1.253 -2.393 -2.287 -4.463 -3.758 -2.197 c -0.35 0.54 -0.598 1.125 -0.709 1.765 c -0.234 -0.604 -0.592 -1.129 -1.041 -1.588 C 20.99 18.044 17.926 20.772 19.627 22.871 z" style="stroke: none; stroke-width: 1; stroke-dasharray: none; stroke-linecap: butt; stroke-linejoin: miter; stroke-miterlimit: 10; fill: rgb(232,146,144); fill-rule: nonzero; opacity: 1;" transform=" matrix(1 0 0 1 0 0) " stroke-linecap="round" />
	<path d="M 24.649 32.271 c -1.406 0 -2.858 -0.872 -3.121 -2.665 c -0.008 -0.052 -0.015 -0.105 -0.021 -0.157 c -0.049 0.021 -0.099 0.04 -0.148 0.059 c -1.829 0.7 -3.398 -0.331 -4.003 -1.712 c -0.606 -1.382 -0.302 -3.235 1.451 -4.104 c 0.048 -0.024 0.096 -0.047 0.145 -0.07 c -0.034 -0.04 -0.068 -0.081 -0.102 -0.123 c -1.232 -1.52 -0.735 -3.332 0.392 -4.335 c 1.127 -1.003 2.985 -1.288 4.352 0.112 c 0.037 0.038 0.074 0.077 0.109 0.115 c 0.028 -0.046 0.057 -0.091 0.086 -0.137 c 1.065 -1.641 2.942 -1.729 4.244 -0.967 c 1.303 0.762 2.146 2.439 1.239 4.173 c -0.025 0.048 -0.05 0.095 -0.077 0.142 c 0.051 0.013 0.103 0.025 0.154 0.039 c 1.891 0.506 2.554 2.263 2.232 3.738 c -0.322 1.476 -1.662 2.793 -3.587 2.467 c -0.052 -0.009 -0.104 -0.019 -0.156 -0.028 c 0.004 0.053 0.007 0.105 0.01 0.159 c 0.104 1.953 -1.362 3.127 -2.864 3.277 C 24.874 32.266 24.761 32.271 24.649 32.271 z M 22.61 26.564 c 0.173 0 0.347 0.045 0.504 0.137 c 0.388 0.227 0.577 0.685 0.462 1.12 c -0.125 0.47 -0.147 0.959 -0.069 1.496 c 0.147 1.009 1.091 0.967 1.278 0.948 c 0.187 -0.019 1.119 -0.163 1.065 -1.182 c -0.028 -0.54 -0.147 -1.015 -0.363 -1.453 c -0.198 -0.403 -0.104 -0.889 0.232 -1.188 c 0.335 -0.299 0.83 -0.337 1.207 -0.094 c 0.41 0.264 0.869 0.437 1.402 0.528 c 1.007 0.175 1.257 -0.738 1.297 -0.922 c 0.04 -0.184 0.19 -1.115 -0.794 -1.378 c -0.523 -0.14 -1.013 -0.175 -1.495 -0.105 c -0.444 0.061 -0.877 -0.177 -1.058 -0.588 c -0.18 -0.411 -0.064 -0.893 0.284 -1.176 c 0.378 -0.309 0.685 -0.692 0.936 -1.172 c 0.473 -0.904 -0.314 -1.424 -0.477 -1.519 c -0.163 -0.095 -1.002 -0.527 -1.557 0.33 c -0.295 0.455 -0.479 0.909 -0.563 1.391 c -0.077 0.442 -0.439 0.78 -0.886 0.824 c -0.444 0.046 -0.869 -0.214 -1.031 -0.633 c -0.177 -0.455 -0.446 -0.864 -0.824 -1.251 c -0.714 -0.73 -1.452 -0.142 -1.591 -0.016 c -0.141 0.125 -0.81 0.791 -0.168 1.583 l 0 0 c 0.34 0.42 0.716 0.735 1.147 0.963 c 0.397 0.21 0.606 0.659 0.51 1.098 c -0.096 0.439 -0.473 0.76 -0.921 0.785 c -0.488 0.027 -0.96 0.157 -1.445 0.397 c -0.914 0.453 -0.583 1.336 -0.507 1.508 c 0.075 0.173 0.499 1.015 1.454 0.649 c 0.505 -0.194 0.921 -0.455 1.271 -0.794 C 22.104 26.661 22.356 26.564 22.61 26.564 z" style="stroke: none; stroke-width: 1; stroke-dasharray: none; stroke-linecap: butt; stroke-linejoin: miter; stroke-miterlimit: 10; fill: rgb(0,0,0); fill-rule: nonzero; opacity: 1;" transform=" matrix(1 0 0 1 0 0) " stroke-linecap="round" />
	<path d="M 55.67 39.579 c -0.062 0 -0.124 -0.003 -0.187 -0.011 l -0.479 -0.057 c -0.823 -0.091 -1.416 -0.833 -1.325 -1.656 c 0.092 -0.824 0.832 -1.415 1.657 -1.325 l 0.516 0.061 c 0.822 0.103 1.406 0.852 1.304 1.674 C 57.063 39.023 56.416 39.579 55.67 39.579 z" style="stroke: none; stroke-width: 1; stroke-dasharray: none; stroke-linecap: butt; stroke-linejoin: miter; stroke-miterlimit: 10; fill: rgb(0,0,0); fill-rule: nonzero; opacity: 1;" transform=" matrix(1 0 0 1 0 0) " stroke-linecap="round" />
	<path d="M 72.953 52.578 c -0.585 0 -1.142 -0.344 -1.383 -0.917 c -0.117 -0.277 -0.238 -0.551 -0.362 -0.819 c -0.349 -0.751 -0.022 -1.643 0.729 -1.991 c 0.751 -0.351 1.643 -0.023 1.991 0.729 c 0.14 0.3 0.274 0.604 0.405 0.915 c 0.322 0.763 -0.035 1.643 -0.799 1.965 C 73.345 52.54 73.147 52.578 72.953 52.578 z M 68.977 46.153 c -0.413 0 -0.825 -0.169 -1.121 -0.502 c -0.194 -0.218 -0.393 -0.43 -0.596 -0.637 c -0.582 -0.59 -0.574 -1.54 0.016 -2.121 c 0.591 -0.581 1.542 -0.574 2.121 0.017 c 0.238 0.242 0.472 0.49 0.699 0.746 c 0.551 0.619 0.496 1.566 -0.122 2.118 C 69.688 46.028 69.331 46.153 68.977 46.153 z M 62.943 41.634 c -0.217 0 -0.437 -0.047 -0.646 -0.147 c -0.264 -0.126 -0.53 -0.246 -0.802 -0.36 c -0.763 -0.322 -1.121 -1.202 -0.799 -1.965 c 0.321 -0.763 1.201 -1.121 1.965 -0.799 c 0.314 0.133 0.624 0.272 0.929 0.417 c 0.748 0.357 1.064 1.252 0.707 2 C 64.04 41.319 63.503 41.634 62.943 41.634 z" style="stroke: none; stroke-width: 1; stroke-dasharray: none; stroke-linecap: butt; stroke-linejoin: miter; stroke-miterlimit: 10; fill: rgb(0,0,0); fill-rule: nonzero; opacity: 1;" transform=" matrix(1 0 0 1 0 0) " stroke-linecap="round" />
	<path d="M 54.874 45.737 c -0.298 0 -0.599 -0.088 -0.86 -0.272 c -0.124 -0.087 -0.251 -0.174 -0.379 -0.258 c -0.691 -0.457 -0.881 -1.387 -0.424 -2.079 c 0.456 -0.692 1.387 -0.882 2.078 -0.424 c 0.151 0.1 0.3 0.202 0.447 0.305 c 0.679 0.476 0.843 1.411 0.366 2.089 C 55.812 45.515 55.346 45.737 54.874 45.737 z" style="stroke: none; stroke-width: 1; stroke-dasharray: none; stroke-linecap: butt; stroke-linejoin: miter; stroke-miterlimit: 10; fill: rgb(0,0,0); fill-rule: nonzero; opacity: 1;" transform=" matrix(1 0 0 1 0 0) " stroke-linecap="round" />
	<path d="M 60.629 53.188 c -0.603 0 -1.171 -0.365 -1.4 -0.961 c -0.131 -0.342 -0.273 -0.677 -0.427 -1.006 c -0.349 -0.751 -0.023 -1.643 0.729 -1.992 c 0.748 -0.347 1.643 -0.023 1.992 0.729 c 0.181 0.39 0.351 0.787 0.507 1.191 c 0.297 0.773 -0.089 1.642 -0.861 1.939 C 60.99 53.156 60.809 53.188 60.629 53.188 z" style="stroke: none; stroke-width: 1; stroke-dasharray: none; stroke-linecap: butt; stroke-linejoin: miter; stroke-miterlimit: 10; fill: rgb(0,0,0); fill-rule: nonzero; opacity: 1;" transform=" matrix(1 0 0 1 0 0) " stroke-linecap="round" />
	<path d="M 61.992 46.737 c -0.298 0 -0.599 -0.088 -0.86 -0.272 c -0.124 -0.087 -0.251 -0.174 -0.379 -0.258 c -0.691 -0.457 -0.881 -1.387 -0.424 -2.079 c 0.456 -0.692 1.387 -0.882 2.078 -0.424 c 0.151 0.1 0.3 0.202 0.447 0.305 c 0.679 0.476 0.843 1.411 0.366 2.089 C 62.93 46.515 62.464 46.737 61.992 46.737 z" style="stroke: none; stroke-width: 1; stroke-dasharray: none; stroke-linecap: butt; stroke-linejoin: miter; stroke-miterlimit: 10; fill: rgb(0,0,0); fill-rule: nonzero; opacity: 1;" transform=" matrix(1 0 0 1 0 0) " stroke-linecap="round" />
</g>
</svg>